<svg width="775" height="582" viewBox="0 0 775 582" fill="none" xmlns="http://www.w3.org/2000/svg">
<g filter="url(#filter0_f_8_4)">
<path d="M321.04 180.112L305.344 259.96C305.308 260.133 305.308 260.325 305.308 260.517V321.482C305.308 321.654 305.308 321.845 305.344 322.037L321.04 401.869C321.892 406.163 329.955 407.624 335.724 406.233V175.747C334.318 175.412 332.779 175.245 331.238 175.245C326.457 175.245 321.684 176.863 321.04 180.112ZM439.976 175.755V406.24C445.744 407.613 453.805 406.17 454.657 401.877L470.353 322.028C470.389 321.852 470.389 321.663 470.389 321.47V260.506C470.389 260.332 470.389 260.141 470.353 259.95L454.657 180.118C454.013 176.873 449.25 175.245 444.472 175.245C442.928 175.245 441.384 175.415 439.976 175.755ZM377.657 180.118L361.976 259.952C361.94 260.14 361.92 260.328 361.92 260.516V321.47C361.92 321.659 361.94 321.848 361.976 322.035L377.657 401.869C378.937 408.367 396.762 408.367 398.039 401.869L413.723 322.035C413.759 321.848 413.777 321.659 413.777 321.47V260.516C413.777 260.328 413.759 260.14 413.723 259.952L398.039 180.118C397.401 176.87 392.625 175.245 387.85 175.245C383.074 175.245 378.296 176.87 377.657 180.118ZM509.553 398.05C514.339 398.05 519.122 396.433 519.748 393.182L535.444 313.332C535.475 313.159 535.475 312.968 535.475 312.775V269.21C535.475 269.036 535.475 268.846 535.444 268.655L519.748 188.824C519.122 185.571 514.339 183.937 509.553 183.937V398.05ZM255.952 188.806L240.253 268.655C240.22 268.828 240.22 269.02 240.22 269.21V312.775C240.22 312.951 240.22 313.141 240.253 313.332L255.952 393.164C256.575 396.415 261.358 398.05 266.142 398.05V183.937C261.358 183.937 256.575 185.554 255.952 188.806ZM579.132 388.838C582.082 388.124 584.377 386.681 584.836 384.474L600.532 304.625C600.563 304.451 600.563 304.26 600.563 304.067V277.919C600.563 277.728 600.563 277.536 600.532 277.344L584.836 197.515C584.377 195.306 582.082 193.846 579.132 193.15V388.838ZM190.863 197.513L175.164 277.363C175.134 277.536 175.134 277.728 175.134 277.919V304.067C175.134 304.26 175.134 304.451 175.164 304.641L190.863 384.474C191.322 386.681 193.618 388.143 196.565 388.838L196.565 193.15C193.618 193.862 191.322 195.306 190.863 197.513Z" fill="url(#paint0_linear_8_4)"/>
</g>
<defs>
<filter id="filter0_f_8_4" x="0.833542" y="0.944992" width="774.03" height="580.097" filterUnits="userSpaceOnUse" color-interpolation-filters="sRGB">
<feFlood flood-opacity="0" result="BackgroundImageFix"/>
<feBlend mode="normal" in="SourceGraphic" in2="BackgroundImageFix" result="shape"/>
<feGaussianBlur stdDeviation="87.15" result="effect1_foregroundBlur_8_4"/>
</filter>
<linearGradient id="paint0_linear_8_4" x1="175.133" y1="290.994" x2="690.891" y2="300.769" gradientUnits="userSpaceOnUse">
<stop stop-color="#FB2177"/>
<stop offset="0.520913" stop-color="#8900FF"/>
<stop offset="1" stop-color="#FF004E"/>
</linearGradient>
</defs>
</svg>
