<svg width="164" height="53" viewBox="0 0 164 53" fill="none" xmlns="http://www.w3.org/2000/svg">
<mask id="mask0_1_29" style="mask-type:luminance" maskUnits="userSpaceOnUse" x="0" y="0" width="52" height="53">
<path d="M33.8443 1.11224C33.7409 0.132195 32.7649 -0.201332 32.0665 0.116344V52.7099C32.7649 53.0232 33.7409 52.6937 33.8443 51.714L35.7448 33.4936C35.7488 33.4539 35.7488 33.4104 35.7488 33.3666V19.4556C35.7488 19.4158 35.7488 19.372 35.7448 19.3282L33.8443 1.11224ZM26.9889 1.11192C26.8346 -0.370571 24.6761 -0.370571 24.5214 1.11192L22.6225 19.3289C22.6182 19.3717 22.6157 19.4146 22.6157 19.4574V33.3669C22.6157 33.4098 22.6182 33.4526 22.6225 33.4955L24.5214 51.7124C24.6761 53.1949 26.8346 53.1949 26.9889 51.7124L28.8879 33.4955C28.8922 33.4526 28.8944 33.4098 28.8944 33.3669V19.4574C28.8944 19.4146 28.8922 19.3717 28.8879 19.3289L26.9889 1.11192ZM51.5063 23.2978L49.6059 5.0815C49.5503 4.57781 49.2723 4.2443 48.9152 4.08562V48.7387C49.2723 48.576 49.5503 48.2468 49.6059 47.7428L51.5063 29.5225C51.5104 29.4827 51.5104 29.4393 51.5104 29.3955V23.4289C51.5104 23.3851 51.5104 23.3413 51.5063 23.2978ZM41.7248 3.09843C41.6493 2.35625 41.0702 1.98329 40.4907 1.98329V50.8411C41.0702 50.8411 41.6493 50.4718 41.7248 49.73L43.6256 31.5096C43.6293 31.4699 43.6293 31.4261 43.6293 31.3826V21.4417C43.6293 21.402 43.6293 21.3585 43.6256 21.3147L41.7248 3.09843ZM1.90452 5.0815L0.00373006 23.3018C3.63917e-06 23.3413 0 23.3851 0 23.4289V29.3955C0 29.4393 3.63917e-06 29.4827 0.00373006 29.5265L1.90452 47.7428C1.9601 48.2468 2.23803 48.5801 2.59515 48.7387V4.08562C2.23803 4.24834 1.9601 4.57781 1.90452 5.0815ZM9.78497 3.09438L7.8845 21.3147C7.88077 21.3545 7.88077 21.398 7.88077 21.4417V31.3826C7.88077 31.4223 7.88077 31.4658 7.8845 31.5096L9.78497 49.7259C9.86074 50.4678 10.4399 50.8411 11.0193 50.8411V1.98329C10.4399 1.98329 9.86074 2.3522 9.78497 3.09438ZM19.4436 0.114479V52.708C18.7452 53.0257 17.7691 52.6922 17.666 51.7121L15.7656 33.4958C15.7615 33.4523 15.7615 33.4085 15.7615 33.3688V19.4577C15.7615 19.414 15.7615 19.3705 15.7656 19.3307L17.666 1.11038C17.7691 0.130329 18.7452 -0.198849 19.4436 0.114479Z" fill="white"/>
</mask>
<g mask="url(#mask0_1_29)">
<path d="M33.8443 1.11224C33.7409 0.132195 32.7649 -0.201332 32.0665 0.116344V52.7099C32.7649 53.0232 33.7409 52.6937 33.8443 51.714L35.7448 33.4936C35.7488 33.4539 35.7488 33.4104 35.7488 33.3666V19.4556C35.7488 19.4158 35.7488 19.372 35.7448 19.3282L33.8443 1.11224ZM26.9889 1.11192C26.8346 -0.370571 24.6761 -0.370571 24.5214 1.11192L22.6225 19.3289C22.6182 19.3717 22.6157 19.4146 22.6157 19.4574V33.3669C22.6157 33.4098 22.6182 33.4526 22.6225 33.4955L24.5214 51.7124C24.6761 53.1949 26.8346 53.1949 26.9889 51.7124L28.8879 33.4955C28.8922 33.4526 28.8944 33.4098 28.8944 33.3669V19.4574C28.8944 19.4146 28.8922 19.3717 28.8879 19.3289L26.9889 1.11192ZM51.5063 23.2978L49.6059 5.0815C49.5503 4.57781 49.2723 4.2443 48.9152 4.08562V48.7387C49.2723 48.576 49.5503 48.2468 49.6059 47.7428L51.5063 29.5225C51.5104 29.4827 51.5104 29.4393 51.5104 29.3955V23.4289C51.5104 23.3851 51.5104 23.3413 51.5063 23.2978ZM41.7248 3.09843C41.6493 2.35625 41.0702 1.98329 40.4907 1.98329V50.8411C41.0702 50.8411 41.6493 50.4718 41.7248 49.73L43.6256 31.5096C43.6293 31.4699 43.6293 31.4261 43.6293 31.3826V21.4417C43.6293 21.402 43.6293 21.3585 43.6256 21.3147L41.7248 3.09843ZM1.90452 5.0815L0.00373006 23.3018C3.63917e-06 23.3413 0 23.3851 0 23.4289V29.3955C0 29.4393 3.63917e-06 29.4827 0.00373006 29.5265L1.90452 47.7428C1.9601 48.2468 2.23803 48.5801 2.59515 48.7387V4.08562C2.23803 4.24834 1.9601 4.57781 1.90452 5.0815ZM9.78497 3.09438L7.8845 21.3147C7.88077 21.3545 7.88077 21.398 7.88077 21.4417V31.3826C7.88077 31.4223 7.88077 31.4658 7.8845 31.5096L9.78497 49.7259C9.86074 50.4678 10.4399 50.8411 11.0193 50.8411V1.98329C10.4399 1.98329 9.86074 2.3522 9.78497 3.09438ZM19.4436 0.114479V52.708C18.7452 53.0257 17.7691 52.6922 17.666 51.7121L15.7656 33.4958C15.7615 33.4523 15.7615 33.4085 15.7615 33.3688V19.4577C15.7615 19.414 15.7615 19.3705 15.7656 19.3307L17.666 1.11038C17.7691 0.130329 18.7452 -0.198849 19.4436 0.114479Z" fill="url(#paint0_linear_1_29)"/>
</g>
<path d="M59.7278 4.40184C59.3843 4.7453 58.9558 4.91516 58.4428 4.91268C57.9301 4.90988 57.5034 4.73535 57.163 4.38848C56.823 4.04224 56.6541 3.61525 56.6566 3.10815C56.6594 2.60073 56.8326 2.17562 57.1764 1.83278C57.5202 1.48933 57.949 1.31946 58.4614 1.32195C58.9744 1.32474 59.4011 1.49928 59.7411 1.84614C60.0815 2.19239 60.2504 2.61937 60.2476 3.12678C60.2451 3.63389 60.0715 4.05901 59.7278 4.40184ZM60.0203 1.56975C59.6091 1.15115 59.0905 0.940615 58.4636 0.93751C57.8363 0.934093 57.3152 1.13936 56.9 1.5533C56.4848 1.96694 56.2752 2.48491 56.2721 3.10598C56.2687 3.72736 56.4727 4.2472 56.8839 4.66487C57.2947 5.08347 57.8139 5.29401 58.4409 5.29742C59.0679 5.30053 59.5886 5.09527 60.0041 4.68132C60.4199 4.26769 60.6289 3.75033 60.6324 3.12895C60.6355 2.50757 60.4317 1.98742 60.0203 1.56975Z" fill="#100F0D"/>
<path d="M58.635 3.07552L58.0621 3.07241L58.0655 2.43116L58.6214 2.43395C58.9061 2.4355 59.048 2.54203 59.0468 2.75257C59.0456 2.96963 58.9083 3.07708 58.635 3.07552ZM59.4316 2.75474C59.4328 2.54947 59.3583 2.38086 59.208 2.24919C59.0577 2.11753 58.8484 2.05044 58.5804 2.04919L57.6829 2.04454L57.6718 4.13911L58.0565 4.14097L58.0602 3.45717L58.5304 3.45966L58.9971 4.14625L59.4244 4.14811L58.9154 3.37613C59.0126 3.34849 59.098 3.30594 59.1729 3.24943C59.3443 3.1249 59.4303 2.96031 59.4316 2.75474Z" fill="#100F0D"/>
<path d="M135.704 10.6649H105.853V13.8448H118.734V42.5771H121.914V13.8448H135.704V10.6649Z" fill="#100F0D"/>
<path d="M137.294 33.3874L145.751 13.7048C145.951 13.2688 146.341 13.2188 146.501 13.2188C146.66 13.2188 147.055 13.2688 147.254 13.7048L156.284 33.3874H137.294ZM160.501 42.5771H163.998L150.144 12.3782C149.485 10.9339 148.086 10.0389 146.501 10.0389C144.915 10.0389 143.521 10.9339 142.844 12.4148L129.884 42.5771H133.345L135.928 36.5673H157.743L160.501 42.5771Z" fill="#100F0D"/>
<path d="M79.9033 25.8219V13.8458H95.2344V13.8461C98.6158 13.8461 101.367 16.5971 101.367 19.9785C101.367 21.6163 100.729 23.1565 99.5499 24.3356C98.6348 25.2418 97.3088 25.7644 95.9114 25.7691L79.9033 25.8219ZM101.819 26.5631C103.578 24.8042 104.547 22.4659 104.547 19.9785C104.547 14.8711 100.413 10.7149 95.3158 10.6705V10.6659H76.7234V42.5771H79.9033V29.0014L90.89 28.9654L90.8916 28.9676L100.022 42.5771H103.851L94.7074 28.9542L94.7065 28.9527L95.9219 28.9486C98.1789 28.9412 100.262 28.1055 101.819 26.5631Z" fill="#100F0D"/>
<defs>
<linearGradient id="paint0_linear_1_29" x1="-1.86319e-05" y1="26.4121" x2="62.4633" y2="27.0403" gradientUnits="userSpaceOnUse">
<stop stop-color="#FB2177"/>
<stop offset="0.520913" stop-color="#8900FF"/>
<stop offset="1" stop-color="#FF004E"/>
</linearGradient>
</defs>
</svg>
